<?xml version="1.0" standalone="no"?>
<!DOCTYPE svg PUBLIC "-//W3C//DTD SVG 20010904//EN"
 "http://www.w3.org/TR/2001/REC-SVG-20010904/DTD/svg10.dtd">
<svg version="1.0" xmlns="http://www.w3.org/2000/svg"
 width="260.000000pt" height="260.000000pt" viewBox="0 0 260.000000 260.000000"
 preserveAspectRatio="xMidYMid meet">
<metadata>
Created by potrace 1.11, written by Peter Selinger 2001-2013
</metadata>
<g transform="translate(0.000000,260.000000) scale(0.100000,-0.100000)"
fill="#000000" stroke="none">
<path d="M1302 1923 c-22 -18 -124 -191 -143 -240 -13 -36 4 -78 39 -92 15 -5
89 -9 165 -8 133 2 140 3 158 26 30 36 23 65 -38 174 -85 152 -128 185 -181
140z m126 -151 c49 -85 62 -115 54 -125 -14 -16 -255 -18 -271 -2 -7 7 7 42
45 110 61 109 82 137 98 132 5 -2 39 -54 74 -115z"/>
<path d="M137 1480 c-52 -10 -88 -38 -115 -91 -20 -37 -23 -55 -19 -111 5 -84
29 -126 87 -156 37 -19 56 -23 105 -19 84 6 115 23 115 59 l0 30 -36 -22 c-41
-26 -120 -31 -159 -10 -13 7 -34 33 -46 57 -37 76 -11 178 52 210 36 19 100
16 142 -7 47 -25 47 -25 47 6 0 19 -8 28 -32 39 -45 18 -96 24 -141 15z"/>
<path d="M826 1468 c-3 -7 -4 -92 -3 -188 2 -168 3 -175 22 -175 19 0 20 8 25
163 l5 163 85 -163 c81 -155 87 -163 115 -163 l30 0 3 188 2 187 -25 0 -24 0
-3 -146 -3 -146 -76 143 c-75 143 -76 144 -112 147 -24 2 -39 -1 -41 -10z"/>
<path d="M1180 1456 c0 -23 2 -24 65 -22 l65 2 2 -165 c3 -162 3 -164 26 -166
22 -2 22 -2 22 162 0 90 3 163 8 164 4 1 32 1 62 2 39 1 57 6 61 17 4 8 5 18
2 23 -2 4 -74 7 -159 7 l-154 0 0 -24z"/>
<path d="M1560 1296 c0 -102 4 -187 9 -190 5 -4 16 -3 25 0 11 4 16 24 18 77
l3 71 32 1 c27 0 40 -11 96 -76 45 -53 72 -76 86 -75 12 0 22 5 22 10 2 8 -36
56 -93 121 l-26 30 34 30 c28 24 35 38 36 72 3 82 -44 113 -174 113 l-68 0 0
-184z m157 130 c41 -13 43 -95 4 -116 -11 -5 -39 -11 -63 -12 l-43 -3 -3 71
-3 70 43 -1 c24 -1 53 -5 65 -9z"/>
<path d="M2364 1295 c-1 -163 1 -185 15 -186 9 -1 62 -2 118 -3 100 -1 103 0
103 21 0 21 -5 22 -92 25 l-93 3 0 163 0 162 -25 0 -25 0 -1 -185z"/>
<path d="M444 1462 c-12 -2 -30 -12 -40 -24 -16 -17 -19 -39 -21 -150 -1 -121
0 -131 22 -156 22 -26 24 -26 153 -26 124 -1 132 1 156 23 25 24 26 28 26 152
0 120 -1 130 -24 155 -23 27 -26 28 -137 29 -63 0 -124 -1 -135 -3z m244 -171
c1 -63 -1 -118 -6 -123 -10 -10 -230 -13 -240 -3 -7 7 -11 213 -4 233 3 9 34
12 126 10 l121 -3 3 -114z"/>
<path d="M2010 1441 c-121 -64 -133 -228 -22 -304 134 -92 314 35 272 192 -28
107 -155 163 -250 112z m134 -46 c39 -19 73 -78 70 -121 -4 -65 -59 -115 -125
-116 -128 -2 -174 177 -59 234 43 22 72 23 114 3z"/>
<path d="M1182 998 c-22 -22 -12 -43 52 -107 l64 -63 -64 -64 c-67 -66 -79
-98 -43 -109 17 -6 35 6 88 59 l67 66 64 -65 c68 -68 92 -78 110 -45 10 18 3
30 -57 91 l-68 70 62 60 c33 32 63 65 66 74 6 14 -17 45 -33 45 -5 0 -39 -29
-76 -65 l-67 -66 -67 66 c-72 68 -79 72 -98 53z"/>
<path d="M413 869 c-33 -12 -41 -56 -14 -82 12 -12 21 -16 21 -9 0 7 -4 12 -9
12 -15 0 -21 30 -11 51 13 24 36 24 49 0 7 -13 6 -24 -4 -37 -21 -28 -18 -40
5 -19 40 36 11 103 -37 84z"/>
<path d="M297 863 c-4 -3 -7 -21 -7 -40 0 -27 5 -35 27 -44 20 -7 30 -6 40 4
12 12 9 13 -16 9 -26 -3 -31 0 -36 21 -9 34 2 50 31 44 14 -2 27 0 30 4 6 10
-59 12 -69 2z"/>
<path d="M499 863 c-5 -40 -3 -83 3 -83 4 0 8 15 8 33 l1 32 13 -24 c13 -24
14 -24 25 -3 15 29 13 41 -3 19 -13 -16 -14 -16 -20 8 -6 23 -25 35 -27 18z"/>
<path d="M565 825 c0 -25 3 -45 8 -45 4 0 7 20 7 45 0 25 -4 45 -8 45 -4 0 -8
-20 -7 -45z"/>
<path d="M611 823 c1 -26 3 -41 5 -33 3 9 15 20 27 25 32 15 29 49 -5 53 -27
3 -28 2 -27 -45z m43 29 c8 -13 -11 -35 -23 -28 -16 10 -14 36 3 36 8 0 17 -4
20 -8z"/>
<path d="M695 829 c2 -23 9 -45 16 -50 14 -8 40 -1 51 15 11 15 10 76 -1 76
-4 0 -8 -17 -7 -37 1 -32 -3 -38 -21 -41 -21 -3 -23 1 -23 37 0 23 -4 41 -9
41 -5 0 -8 -19 -6 -41z"/>
<path d="M796 860 c17 -6 21 -16 19 -44 -1 -20 2 -36 7 -36 4 0 8 18 8 39 0
29 5 41 18 44 9 3 -3 5 -28 5 -34 1 -40 -1 -24 -8z"/>
<path d="M877 833 c5 -54 9 -60 32 -58 31 2 38 15 8 15 -17 0 -27 5 -27 15 0
10 10 15 27 15 14 0 23 3 19 7 -4 4 -15 8 -23 8 -29 0 -25 23 4 28 24 3 23 4
-8 6 -36 1 -36 1 -32 -36z"/>
<path d="M969 868 c-6 -14 -3 -88 3 -88 4 0 8 18 8 40 0 29 4 40 15 40 18 0
20 -27 3 -32 -12 -4 20 -48 36 -48 5 0 2 8 -7 18 -11 12 -13 22 -7 28 17 17 0
44 -26 44 -13 0 -24 -1 -25 -2z"/>
<path d="M1061 856 c-13 -15 -1 -29 37 -40 30 -10 18 -26 -21 -27 -30 -1 -31
-1 -7 -8 31 -10 62 5 58 27 -2 9 -14 19 -27 22 -38 9 -40 34 -3 28 17 -2 29
-1 26 4 -8 13 -51 9 -63 -6z"/>
<path d="M1573 825 c6 -19 16 -35 22 -35 6 0 16 16 22 35 14 43 6 47 -9 4
l-11 -31 -13 31 c-18 42 -25 39 -11 -4z"/>
<path d="M1646 852 c7 -4 10 -22 8 -39 -2 -18 0 -33 4 -33 4 0 8 18 9 40 2 32
-1 40 -15 40 -11 0 -13 -3 -6 -8z"/>
<path d="M1680 826 c0 -19 4 -37 9 -41 6 -3 7 9 4 30 -5 30 -3 35 15 35 26 0
35 -25 15 -45 -8 -9 -13 -18 -10 -21 3 -3 13 6 22 20 21 31 7 56 -31 56 -21 0
-24 -5 -24 -34z"/>
<path d="M1764 823 c6 -45 2 -38 29 -40 21 -2 21 -1 -3 12 l-25 14 25 10 c24
9 24 10 3 10 -13 1 -23 5 -23 10 0 5 10 12 23 14 18 4 17 5 -6 6 -28 1 -28 0
-23 -36z"/>
<path d="M1834 836 c-7 -29 9 -55 32 -52 23 4 36 22 32 47 -2 18 -10 25 -30
27 -22 3 -29 -2 -34 -22z m56 -3 c0 -38 -35 -55 -45 -23 -8 26 1 40 26 40 11
0 19 -7 19 -17z"/>
<path d="M1954 836 c-6 -27 1 -46 18 -46 7 0 6 5 -2 15 -18 21 -6 43 27 48 27
4 27 4 -4 6 -27 1 -34 -3 -39 -23z"/>
<path d="M2050 857 c0 -1 -4 -17 -10 -35 -8 -29 -7 -32 5 -22 8 7 13 15 11 19
-3 4 -1 13 5 21 7 12 9 9 9 -10 0 -30 20 -67 20 -38 0 26 -18 68 -30 68 -5 0
-10 -1 -10 -3z"/>
<path d="M2121 823 c1 -25 3 -30 6 -15 4 19 7 21 19 11 10 -8 14 -8 14 0 0 23
19 10 23 -16 3 -20 4 -15 6 15 1 43 -11 56 -24 25 -6 -17 -7 -17 -19 0 -20 26
-26 21 -25 -20z"/>
<path d="M2210 825 c0 -19 3 -35 8 -36 4 0 15 -2 25 -4 11 -2 16 0 12 3 -4 4
-12 7 -17 7 -22 0 -18 24 4 28 l23 4 -22 2 c-13 0 -23 5 -23 10 0 5 10 12 23
14 19 4 18 4 -5 6 -26 1 -28 -2 -28 -34z"/>
<path d="M2280 840 c0 -13 7 -20 20 -20 12 0 20 -7 20 -16 0 -11 -6 -15 -20
-11 -11 3 -18 1 -14 -4 9 -16 33 -10 44 11 9 17 7 20 -15 26 -31 8 -32 21 -2
27 19 4 18 4 -5 6 -22 1 -28 -4 -28 -19z"/>
<path d="M1990 820 c0 -5 6 -10 13 -10 8 0 7 -3 -3 -10 -8 -5 -12 -11 -9 -14
10 -10 32 13 26 28 -7 18 -27 22 -27 6z"/>
</g>
</svg>
