<svg id="Control" xmlns="http://www.w3.org/2000/svg" viewBox="0 0 317.33 156.67"><defs><style>.cls-1{fill:#666;}.cls-2{fill:none;}</style></defs><g id="BUTTONS"><path id="driehoek" class="cls-1" d="M181.36,46.9H152.7a9.27,9.27,0,0,1-8-13.9L159,8.17a9.26,9.26,0,0,1,16,0L189.39,33a9.27,9.27,0,0,1-8,13.9ZM167,9.72a3,3,0,0,0-2.67,1.54L150,36.09a3.09,3.09,0,0,0,2.68,4.63h28.66A3.09,3.09,0,0,0,184,36.09L169.71,11.26A3,3,0,0,0,167,9.72Z" transform="translate(-3.49 -3.54)"/><path id="vierkant" class="cls-1" d="M84,104.8H59.18a9.27,9.27,0,0,1-9.26-9.27V70.71a9.27,9.27,0,0,1,9.26-9.27H84a9.27,9.27,0,0,1,9.26,9.27V95.53A9.27,9.27,0,0,1,84,104.8ZM59.18,67.62a3.08,3.08,0,0,0-3.08,3.09V95.53a3.08,3.08,0,0,0,3.08,3.09H84a3.09,3.09,0,0,0,3.09-3.09V70.71A3.09,3.09,0,0,0,84,67.62Z" transform="translate(-3.49 -3.54)"/><path id="rondje" class="cls-1" d="M257.16,105.05a21.68,21.68,0,1,1,21.68-21.68A21.71,21.71,0,0,1,257.16,105.05Zm0-37.18a15.5,15.5,0,1,0,15.5,15.5A15.51,15.51,0,0,0,257.16,67.87Z" transform="translate(-3.49 -3.54)"/><path id="kruis" class="cls-1" d="M172.86,138.53l14.64-14.64a4.12,4.12,0,0,0-5.83-5.83L167,132.7l-14.64-14.64a4.12,4.12,0,1,0-5.83,5.83l14.64,14.64-14.64,14.64a4.12,4.12,0,0,0,5.83,5.83L167,144.36,181.67,159a4.12,4.12,0,0,0,5.83-5.83Z" transform="translate(-3.49 -3.54)"/></g><g id="control-2" data-name="control"><path d="M25.63,105.54c-12.69,0-22.14-9.89-22.14-22.45S12.76,60.5,26,60.5c8,0,12.87,2.8,17,6.78L38.08,73c-3.49-3.24-7.22-5.42-12.2-5.42-8.33,0-14.37,6.85-14.37,15.43s6,15.55,14.37,15.55c5.35,0,8.78-2.17,12.51-5.66l4.91,5C38.76,102.56,33.78,105.54,25.63,105.54Z" transform="translate(-3.49 -3.54)"/><path class="cls-2" d="M70.86,105.54c-13.37,0-22.71-10.14-22.71-22.45A22.34,22.34,0,0,1,71,60.5c13.37,0,22.7,10.14,22.7,22.46A22.32,22.32,0,0,1,70.86,105.54Zm0-38c-8.65,0-14.68,6.91-14.68,15.43S62.34,98.51,71,98.51s14.68-6.9,14.68-15.42S79.51,67.53,70.86,67.53Z" transform="translate(-3.49 -3.54)"/><path d="M133.38,61.25h7.53V104.8H134.5l-24-31v31H103V61.25h7.09l23.33,30.11Z" transform="translate(-3.49 -3.54)"/><path d="M170.52,104.8h-7.71V68.34H149V61.25h35.33v7.09H170.52Z" transform="translate(-3.49 -3.54)"/><path d="M220.35,104.8l-10.7-15.18h-9.58V104.8h-7.65V61.25h19.41c10,0,16.17,5.29,16.17,13.81,0,7.22-4.29,11.57-10.39,13.25l11.76,16.49Zm-9.14-36.58H200.07V82.84h11.2c5.47,0,9-2.86,9-7.34C220.23,70.71,216.87,68.22,211.21,68.22Z" transform="translate(-3.49 -3.54)"/><path class="cls-2" d="M258.17,105.54c-13.37,0-22.7-10.14-22.7-22.45A22.33,22.33,0,0,1,258.3,60.5C271.67,60.5,281,70.64,281,83A22.32,22.32,0,0,1,258.17,105.54Zm0-38c-8.64,0-14.68,6.91-14.68,15.43s6.16,15.55,14.81,15.55S273,91.61,273,83.09,266.82,67.53,258.17,67.53Z" transform="translate(-3.49 -3.54)"/><path d="M290.27,61.25h7.65V97.83h22.9v7H290.27Z" transform="translate(-3.49 -3.54)"/></g><g id="computers"><path d="M43.85,145a5.73,5.73,0,0,1,.08-11.45,5.77,5.77,0,0,1,4.33,1.73L47,136.72a4.35,4.35,0,0,0-3.09-1.38,3.95,3.95,0,0,0,0,7.87,4.29,4.29,0,0,0,3.17-1.44L48.34,143A5.71,5.71,0,0,1,43.85,145Z" transform="translate(-3.49 -3.54)"/><path d="M55.34,145a5.62,5.62,0,0,1-5.77-5.71A5.79,5.79,0,1,1,55.34,145Zm0-9.66a3.74,3.74,0,0,0-3.73,3.92,3.8,3.8,0,0,0,3.77,4,3.74,3.74,0,0,0,3.73-3.92A3.8,3.8,0,0,0,55.34,135.34Z" transform="translate(-3.49 -3.54)"/><path d="M68.94,142.09h-.07l-3.46-5.18v7.9H63.5V133.74h2.07L68.94,139l3.36-5.24h2.08v11.07H72.43v-7.94Z" transform="translate(-3.49 -3.54)"/><path d="M81.36,141.25h-2.2v3.56H77.22V133.74h4.36c2.58,0,4.21,1.46,4.21,3.72C85.79,140,83.79,141.25,81.36,141.25Zm.06-5.74H79.16v4h2.26c1.47,0,2.39-.81,2.39-2S82.88,135.51,81.42,135.51Z" transform="translate(-3.49 -3.54)"/><path d="M97.07,140c0,3.3-1.86,5-4.76,5s-4.71-1.66-4.71-4.87v-6.37h2V140c0,2.05,1.06,3.16,2.79,3.16s2.79-1,2.79-3.09v-6.37h1.94Z" transform="translate(-3.49 -3.54)"/><path d="M104.42,144.81h-2v-9.26H99v-1.81h9v1.81h-3.51Z" transform="translate(-3.49 -3.54)"/><path d="M118.19,135.48h-6.26v2.88h5.55v1.74h-5.55v3h6.34v1.74H110V133.74h8.21Z" transform="translate(-3.49 -3.54)"/><path d="M127.67,144.81,125,141h-2.43v3.86h-2V133.74h4.94c2.54,0,4.11,1.35,4.11,3.51a3.32,3.32,0,0,1-2.64,3.37l3,4.19Zm-2.32-9.3h-2.83v3.72h2.84c1.39,0,2.28-.73,2.28-1.87S126.79,135.51,125.35,135.51Z" transform="translate(-3.49 -3.54)"/><path d="M136.27,138.39c2.34.57,3.56,1.41,3.56,3.26,0,2.08-1.63,3.32-4,3.32a6.83,6.83,0,0,1-4.61-1.77l1.17-1.39a5.12,5.12,0,0,0,3.49,1.43c1.2,0,2-.55,2-1.4s-.44-1.24-2.5-1.71c-2.35-.57-3.68-1.26-3.68-3.32s1.58-3.22,3.78-3.22a6.12,6.12,0,0,1,4,1.39l-1,1.47a5,5,0,0,0-3-1.14c-1.14,0-1.8.58-1.8,1.33S134.15,137.89,136.27,138.39Z" transform="translate(-3.49 -3.54)"/></g><g id="videogames"><path d="M200.42,134.86h1.69l-3.7,9H197l-3.71-9h1.73l2.69,6.84Z" transform="translate(-3.49 -3.54)"/><path d="M205.3,134.86v8.91h-1.57v-8.91Z" transform="translate(-3.49 -3.54)"/><path d="M211,143.77h-3.32v-8.91H211a4.46,4.46,0,1,1,0,8.91Zm0-7.49h-1.76v6.06H211a3,3,0,1,0,0-6.06Z" transform="translate(-3.49 -3.54)"/><path d="M224.23,136.26h-5v2.31h4.47V140h-4.47v2.4h5.11v1.4h-6.67v-8.91h6.6Z" transform="translate(-3.49 -3.54)"/><path d="M230.41,143.92a4.61,4.61,0,1,1,4.67-4.62A4.53,4.53,0,0,1,230.41,143.92Zm0-7.78a3,3,0,0,0-3,3.16,3.06,3.06,0,0,0,3,3.18,3,3,0,0,0,3-3.16A3.06,3.06,0,0,0,230.41,136.14Z" transform="translate(-3.49 -3.54)"/><path d="M245,143.92a4.43,4.43,0,0,1-4.62-4.6,4.54,4.54,0,0,1,4.59-4.61,4.86,4.86,0,0,1,3.43,1.2l-1,1.19a3.47,3.47,0,0,0-2.49-1A3,3,0,0,0,242,139.3a3,3,0,0,0,3,3.19,3.62,3.62,0,0,0,2.15-.67v-1.67h-2.28v-1.36h3.79v3.74A5.69,5.69,0,0,1,245,143.92Z" transform="translate(-3.49 -3.54)"/><path d="M259.3,143.77h-1.66l-.9-2.16h-4.21l-.92,2.16H250l3.92-9h1.45Zm-4.67-7.11-1.53,3.57h3.07Z" transform="translate(-3.49 -3.54)"/><path d="M265.2,141.58h-.05l-2.79-4.18v6.37h-1.54v-8.91h1.67l2.71,4.21,2.71-4.21h1.67v8.91H268v-6.39Z" transform="translate(-3.49 -3.54)"/><path d="M278.48,136.26h-5v2.31h4.46V140h-4.46v2.4h5.1v1.4h-6.67v-8.91h6.61Z" transform="translate(-3.49 -3.54)"/><path d="M283.83,138.6c1.89.46,2.87,1.13,2.87,2.62,0,1.68-1.31,2.67-3.18,2.67a5.52,5.52,0,0,1-3.72-1.42l.94-1.12a4.12,4.12,0,0,0,2.82,1.16c1,0,1.57-.45,1.57-1.14s-.35-1-2-1.37c-1.89-.46-3-1-3-2.67s1.27-2.6,3-2.6a5,5,0,0,1,3.23,1.12l-.84,1.18a4.08,4.08,0,0,0-2.42-.91c-.91,0-1.45.47-1.45,1.07S282.13,138.19,283.83,138.6Z" transform="translate(-3.49 -3.54)"/></g></svg>