<?xml version="1.0" encoding="UTF-8" standalone="no"?>
<svg
   xmlns:dc="http://purl.org/dc/elements/1.1/"
   xmlns:cc="http://creativecommons.org/ns#"
   xmlns:rdf="http://www.w3.org/1999/02/22-rdf-syntax-ns#"
   xmlns:svg="http://www.w3.org/2000/svg"
   xmlns="http://www.w3.org/2000/svg"
   xmlns:sodipodi="http://sodipodi.sourceforge.net/DTD/sodipodi-0.dtd"
   xmlns:inkscape="http://www.inkscape.org/namespaces/inkscape"
   version="1.1"
   id="svg10"
   xml:space="preserve"
   width="733.33331"
   height="266.66666"
   viewBox="0 0 733.33331 266.66666"
   sodipodi:docname="Control-new.svg"
   inkscape:version="1.0.1 (3bc2e813f5, 2020-09-07)"><metadata
     id="metadata16"><rdf:RDF><cc:Work
         rdf:about=""><dc:format>image/svg+xml</dc:format><dc:type
           rdf:resource="http://purl.org/dc/dcmitype/StillImage" /><dc:title /></cc:Work></rdf:RDF></metadata><defs
     id="defs14"><clipPath
       clipPathUnits="userSpaceOnUse"
       id="clipPath26"><path
         d="M 0,200 H 550 V 0 H 0 Z"
         id="path24" /></clipPath></defs><sodipodi:namedview
     pagecolor="#ffffff"
     bordercolor="#666666"
     borderopacity="1"
     objecttolerance="10"
     gridtolerance="10"
     guidetolerance="10"
     inkscape:pageopacity="0"
     inkscape:pageshadow="2"
     inkscape:window-width="1280"
     inkscape:window-height="962"
     id="namedview12"
     showgrid="false"
     inkscape:zoom="1.0823183"
     inkscape:cx="360.75235"
     inkscape:cy="133.33333"
     inkscape:window-x="-8"
     inkscape:window-y="-8"
     inkscape:window-maximized="1"
     inkscape:current-layer="g18"
     inkscape:document-rotation="0" /><g
     id="g18"
     inkscape:groupmode="layer"
     inkscape:label="Control"
     transform="matrix(1.3333333,0,0,-1.3333333,0,266.66667)"><g
       id="g20"><g
         id="g22"
         clip-path="url(#clipPath26)"><g
           id="g28"
           transform="translate(280.5303,172.1562)"><path
             d="M 0,0 C -0.536,0 -1.87,-0.15 -2.675,-1.544 L -17.008,-26.37 c -0.804,-1.393 -0.267,-2.624 0,-3.088 0.269,-0.465 1.066,-1.545 2.675,-1.545 h 28.666 c 1.609,0 2.407,1.081 2.675,1.545 0.268,0.464 0.804,1.695 0,3.088 L 2.675,-1.544 C 1.87,-0.15 0.536,0 0,0 m 14.333,-37.18 h -28.666 c -3.35,0 -6.349,1.732 -8.024,4.633 -1.675,2.901 -1.675,6.365 0,9.266 L -8.024,1.544 C -6.349,4.445 -3.35,6.177 0,6.177 3.35,6.178 6.35,4.446 8.024,1.544 l 14.333,-24.825 c 1.675,-2.901 1.675,-6.365 0,-9.266 -1.674,-2.901 -4.674,-4.633 -8.024,-4.633"
             style="fill:#ff523b;fill-opacity:1;fill-rule:nonzero;stroke:none"
             id="path30" /></g><g
           id="g32"
           transform="translate(172.6841,114.2563)"
           style="fill:#ff523b;fill-opacity:1"><path
             d="m 0,0 c -1.703,0 -3.088,-1.386 -3.088,-3.088 v -24.826 c 0,-1.703 1.385,-3.088 3.088,-3.088 h 24.825 c 1.703,0 3.089,1.385 3.089,3.088 V -3.088 C 27.914,-1.386 26.528,0 24.825,0 Z M 24.825,-37.179 H 0 c -5.109,0 -9.266,4.156 -9.266,9.265 v 24.826 c 0,5.109 4.157,9.265 9.266,9.265 h 24.825 c 5.11,0 9.266,-4.156 9.266,-9.265 v -24.826 c 0,-5.109 -4.156,-9.265 -9.266,-9.265"
             style="fill:#ff523b;fill-opacity:1;fill-rule:nonzero;stroke:none"
             id="path34" /></g><g
           id="g36"
           transform="translate(370.6611,114.0063)"><path
             d="m 0,0 c -8.548,0 -15.501,-6.954 -15.501,-15.501 0,-8.548 6.953,-15.502 15.501,-15.502 8.548,0 15.501,6.954 15.501,15.502 C 15.501,-6.954 8.548,0 0,0 m 0,-37.18 c -11.953,0 -21.679,9.725 -21.679,21.679 0,11.954 9.726,21.678 21.679,21.678 11.954,0 21.679,-9.724 21.679,-21.678 C 21.679,-27.455 11.954,-37.18 0,-37.18"
             style="fill:#ff523b;fill-opacity:1;fill-rule:nonzero;stroke:none"
             id="path38" /></g><g
           id="g40"
           transform="translate(286.3633,43.3452)"
           style="fill:#ff523b;fill-opacity:1"><path
             d="m 0,0 14.638,14.637 c 1.61,1.611 1.61,4.222 0,5.833 -1.611,1.611 -4.222,1.611 -5.833,0 L -5.833,5.833 -20.47,20.47 c -1.611,1.611 -4.222,1.611 -5.833,0 -1.611,-1.611 -1.611,-4.222 0,-5.833 L -11.666,0 -26.303,-14.638 c -1.611,-1.611 -1.611,-4.222 0,-5.833 1.611,-1.61 4.222,-1.61 5.833,0 L -5.833,-5.833 8.805,-20.471 c 1.61,-1.61 4.222,-1.61 5.833,0 1.61,1.611 1.61,4.222 0,5.833 z"
             style="fill:#ff523b;fill-opacity:1;fill-rule:nonzero;stroke:none"
             id="path42" /></g></g></g><g
       aria-label="CNTRL"
       transform="matrix(1,0,0,-1,113.3174,77.0781)"
       id="text46"
       style="font-variant:normal;font-weight:500;font-stretch:normal;font-size:62.2098px;font-family:'Gotham HTF Medium';-inkscape-font-specification:GothamHTF-Medium;writing-mode:lr-tb;fill:#000000;fill-opacity:1;fill-rule:nonzero;stroke:none"><path
         d="m 41.007437,-3.280595 q -1.670673,0.7290211 -3.037588,1.3669146 -1.336539,0.6378935 -3.523602,1.33653869 Q 32.593318,0 30.406255,0.39488643 q -2.156687,0.42526231 -4.769013,0.42526231 -4.920892,0 -8.960884,-1.36691457 Q 12.666742,-1.9440563 9.6899055,-4.8905166 6.7738211,-7.7762251 5.1335236,-12.211103 3.4932261,-16.676358 3.4932261,-22.569278 q 0,-5.589162 1.5795457,-9.993665 1.5795458,-4.404502 4.5563819,-7.44209 2.8857083,-2.94646 6.9560763,-4.49563 4.100744,-1.54917 9.082388,-1.54917 3.645105,0 7.259835,0.880901 3.645106,0.8809 8.079984,3.098339 v 7.138332 h -0.455638 q -3.736233,-3.128716 -7.411715,-4.556382 -3.675481,-1.427666 -7.867352,-1.427666 -3.432475,0 -6.19668,1.123907 -2.733829,1.093532 -4.890516,3.432475 -2.095936,2.27819 -3.280595,5.771417 -1.1542838,3.46285 -1.1542838,8.019232 0,4.769013 1.2757868,8.201487 1.306163,3.432474 3.341347,5.5891619 2.126311,2.2478151 4.951268,3.3413467 2.855333,1.0631558 6.014424,1.0631558 4.343751,0 8.140736,-1.4884181 3.796985,-1.4884181 7.107956,-4.4652543 h 0.425262 z"
         style="fill:#00669b;fill-opacity:1"
         id="path25" /><path
         d="m 138.12714,0 h -7.44209 L 109.23968,-40.460671 V 0 h -5.61954 v -45.229684 h 9.3254 l 19.56206,36.937069 v -36.937069 h 5.61954 z"
         style="fill:#00669b;fill-opacity:1"
         id="path27" /><path
         d="M 185.02506,-39.883529 H 168.8651 V 0 h -6.01443 V -39.883529 H 146.6907 v -5.346155 h 38.33436 z"
         style="fill:#00669b;fill-opacity:1"
         id="path29" /><path
         d="m 230.50091,0 h -7.8066 l -15.12718,-17.982521 h -8.47488 V 0 h -6.01442 v -45.229684 h 12.66674 q 4.10075,0 6.83458,0.546766 2.73382,0.51639 4.92089,1.883304 2.46044,1.54917 3.82736,3.918489 1.39729,2.338942 1.39729,5.953672 0,4.890516 -2.46045,8.201487 -2.46044,3.280595 -6.77382,4.951269 z m -14.06403,-32.502191 q 0,-1.944056 -0.69864,-3.432474 -0.66827,-1.518794 -2.24782,-2.551574 -1.30616,-0.880901 -3.09834,-1.215035 -1.79217,-0.364511 -4.22225,-0.364511 h -7.07758 v 17.071244 h 6.07518 q 2.85533,0 4.98165,-0.486014 2.12631,-0.51639 3.61472,-1.883304 1.36692,-1.275787 2.00481,-2.916085 0.66827,-1.670673 0.66827,-4.222247 z"
         style="fill:#00669b;fill-opacity:1"
         id="path31" /><path
         d="m 319.54793,0 h -28.61408 v -45.229684 h 6.01442 v 39.8835293 h 22.59966 z"
         style="fill:#00669b;fill-opacity:1"
         id="path33" /></g><text
       transform="matrix(1,0,0,-1,150.7925,37.0659)"
       style="font-variant:normal;font-weight:500;font-stretch:normal;font-size:15.8059px;font-family:'Gotham HTF Medium';-inkscape-font-specification:GothamHTF-Medium;writing-mode:lr-tb;fill:#000000;fill-opacity:1;fill-rule:nonzero;stroke:none"
       id="text50"><tspan
         x="0 11.348637 24.783651 38.503174 49.061512 61.026581 71.268806 81.858757 93.286423"
         y="0"
         sodipodi:role="line"
         id="tspan48">COMPUTERS</tspan></text><text
       transform="matrix(1,0,0,-1,306.4512,38.1094)"
       style="font-variant:normal;font-weight:500;font-stretch:normal;font-size:12.7272px;font-family:'Gotham HTF Medium';-inkscape-font-specification:GothamHTF-Medium;writing-mode:lr-tb;fill:#000000;fill-opacity:1;fill-rule:nonzero;stroke:none"
       id="text54"><tspan
         x="0 9.5453997 13.579923 23.532593 32.059818 42.877937 46.696098 56.674221 66.728706 77.775917 86.303146"
         y="0"
         sodipodi:role="line"
         id="tspan52">VIDEO GAMES</tspan></text></g></svg>
